<mxfile host="app.diagrams.net" agent="Mozilla/5.0 (Windows NT 10.0; Win64; x64) AppleWebKit/537.36 (KHTML, like Gecko) Chrome/134.0.0.0 Safari/537.36" version="26.2.9">
  <diagram name="Page-1" id="V4wS_3exVp9KHt_q2zGJ">
    <mxGraphModel dx="1190" dy="648" grid="1" gridSize="10" guides="1" tooltips="1" connect="1" arrows="1" fold="1" page="1" pageScale="1" pageWidth="827" pageHeight="1169" math="0" shadow="0">
      <root>
        <mxCell id="0" />
        <mxCell id="1" parent="0" />
        <mxCell id="nV4IlibakuIvGD99S6-v-1" value="&lt;font style=&quot;font-size: 24px;&quot;&gt;Integration Model&lt;/font&gt;" style="rounded=0;whiteSpace=wrap;html=1;fillColor=none;strokeColor=default;" vertex="1" parent="1">
          <mxGeometry x="20" y="40" width="210" height="40" as="geometry" />
        </mxCell>
        <mxCell id="nV4IlibakuIvGD99S6-v-2" value="crm_cust_info" style="swimlane;fontStyle=0;childLayout=stackLayout;horizontal=1;startSize=30;horizontalStack=0;resizeParent=1;resizeParentMax=0;resizeLast=0;collapsible=1;marginBottom=0;whiteSpace=wrap;html=1;rounded=1;sketch=1;curveFitting=1;jiggle=2;fillColor=#dae8fc;strokeColor=#6c8ebf;fontSize=20;" vertex="1" parent="1">
          <mxGeometry x="260" y="400" width="180" height="110" as="geometry" />
        </mxCell>
        <mxCell id="nV4IlibakuIvGD99S6-v-3" value="cst_id" style="text;strokeColor=none;fillColor=none;align=left;verticalAlign=middle;spacingLeft=4;spacingRight=4;overflow=hidden;points=[[0,0.5],[1,0.5]];portConstraint=eastwest;rotatable=0;whiteSpace=wrap;html=1;fontSize=20;" vertex="1" parent="nV4IlibakuIvGD99S6-v-2">
          <mxGeometry y="30" width="180" height="40" as="geometry" />
        </mxCell>
        <mxCell id="nV4IlibakuIvGD99S6-v-19" value="cst_key" style="text;strokeColor=none;fillColor=none;align=left;verticalAlign=middle;spacingLeft=4;spacingRight=4;overflow=hidden;points=[[0,0.5],[1,0.5]];portConstraint=eastwest;rotatable=0;whiteSpace=wrap;html=1;fontSize=20;" vertex="1" parent="nV4IlibakuIvGD99S6-v-2">
          <mxGeometry y="70" width="180" height="40" as="geometry" />
        </mxCell>
        <mxCell id="nV4IlibakuIvGD99S6-v-6" value="&lt;font&gt;Customer Information&lt;/font&gt;" style="rounded=0;whiteSpace=wrap;html=1;fillColor=none;strokeColor=none;" vertex="1" parent="1">
          <mxGeometry x="275" y="380" width="123" height="20" as="geometry" />
        </mxCell>
        <mxCell id="nV4IlibakuIvGD99S6-v-7" value="crm_prd_info" style="swimlane;fontStyle=0;childLayout=stackLayout;horizontal=1;startSize=30;horizontalStack=0;resizeParent=1;resizeParentMax=0;resizeLast=0;collapsible=1;marginBottom=0;whiteSpace=wrap;html=1;rounded=1;sketch=1;curveFitting=1;jiggle=2;fillColor=#dae8fc;strokeColor=#6c8ebf;fontSize=20;" vertex="1" parent="1">
          <mxGeometry x="270" y="170" width="170" height="70" as="geometry" />
        </mxCell>
        <mxCell id="nV4IlibakuIvGD99S6-v-8" value="prd_key" style="text;strokeColor=none;fillColor=none;align=left;verticalAlign=middle;spacingLeft=4;spacingRight=4;overflow=hidden;points=[[0,0.5],[1,0.5]];portConstraint=eastwest;rotatable=0;whiteSpace=wrap;html=1;fontSize=20;" vertex="1" parent="nV4IlibakuIvGD99S6-v-7">
          <mxGeometry y="30" width="170" height="40" as="geometry" />
        </mxCell>
        <mxCell id="nV4IlibakuIvGD99S6-v-9" value="&lt;font&gt;Current &amp;amp; History Product Information&lt;/font&gt;" style="rounded=0;whiteSpace=wrap;html=1;fillColor=none;strokeColor=none;" vertex="1" parent="1">
          <mxGeometry x="230" y="150" width="210" height="20" as="geometry" />
        </mxCell>
        <mxCell id="nV4IlibakuIvGD99S6-v-10" value="crm_sales_details" style="swimlane;fontStyle=0;childLayout=stackLayout;horizontal=1;startSize=30;horizontalStack=0;resizeParent=1;resizeParentMax=0;resizeLast=0;collapsible=1;marginBottom=0;whiteSpace=wrap;html=1;rounded=1;sketch=1;curveFitting=1;jiggle=2;fillColor=#dae8fc;strokeColor=#6c8ebf;fontSize=20;" vertex="1" parent="1">
          <mxGeometry x="40" y="270" width="160" height="110" as="geometry" />
        </mxCell>
        <mxCell id="nV4IlibakuIvGD99S6-v-11" value="prd_key" style="text;strokeColor=none;fillColor=none;align=left;verticalAlign=middle;spacingLeft=4;spacingRight=4;overflow=hidden;points=[[0,0.5],[1,0.5]];portConstraint=eastwest;rotatable=0;whiteSpace=wrap;html=1;fontSize=20;" vertex="1" parent="nV4IlibakuIvGD99S6-v-10">
          <mxGeometry y="30" width="160" height="40" as="geometry" />
        </mxCell>
        <mxCell id="nV4IlibakuIvGD99S6-v-13" value="cst_id" style="text;strokeColor=none;fillColor=none;align=left;verticalAlign=middle;spacingLeft=4;spacingRight=4;overflow=hidden;points=[[0,0.5],[1,0.5]];portConstraint=eastwest;rotatable=0;whiteSpace=wrap;html=1;fontSize=20;" vertex="1" parent="nV4IlibakuIvGD99S6-v-10">
          <mxGeometry y="70" width="160" height="40" as="geometry" />
        </mxCell>
        <mxCell id="nV4IlibakuIvGD99S6-v-12" value="&lt;font&gt;Transactional Records about Sales &amp;amp; Orders&lt;/font&gt;" style="rounded=0;whiteSpace=wrap;html=1;fillColor=none;strokeColor=none;" vertex="1" parent="1">
          <mxGeometry x="30" y="240" width="160" height="20" as="geometry" />
        </mxCell>
        <mxCell id="nV4IlibakuIvGD99S6-v-14" style="edgeStyle=orthogonalEdgeStyle;rounded=0;orthogonalLoop=1;jettySize=auto;html=1;entryX=-0.006;entryY=0.384;entryDx=0;entryDy=0;entryPerimeter=0;" edge="1" parent="1" source="nV4IlibakuIvGD99S6-v-13" target="nV4IlibakuIvGD99S6-v-3">
          <mxGeometry relative="1" as="geometry" />
        </mxCell>
        <mxCell id="nV4IlibakuIvGD99S6-v-15" style="edgeStyle=orthogonalEdgeStyle;rounded=0;orthogonalLoop=1;jettySize=auto;html=1;entryX=0;entryY=0.5;entryDx=0;entryDy=0;" edge="1" parent="1" source="nV4IlibakuIvGD99S6-v-11" target="nV4IlibakuIvGD99S6-v-8">
          <mxGeometry relative="1" as="geometry" />
        </mxCell>
        <mxCell id="nV4IlibakuIvGD99S6-v-16" value="erp_loc_a101" style="swimlane;fontStyle=0;childLayout=stackLayout;horizontal=1;startSize=30;horizontalStack=0;resizeParent=1;resizeParentMax=0;resizeLast=0;collapsible=1;marginBottom=0;whiteSpace=wrap;html=1;rounded=1;sketch=1;curveFitting=1;jiggle=2;fillColor=#fff2cc;strokeColor=#d6b656;fontSize=20;" vertex="1" parent="1">
          <mxGeometry x="550" y="295" width="160" height="70" as="geometry" />
        </mxCell>
        <mxCell id="nV4IlibakuIvGD99S6-v-17" value="cid" style="text;strokeColor=none;fillColor=none;align=left;verticalAlign=middle;spacingLeft=4;spacingRight=4;overflow=hidden;points=[[0,0.5],[1,0.5]];portConstraint=eastwest;rotatable=0;whiteSpace=wrap;html=1;fontSize=20;" vertex="1" parent="nV4IlibakuIvGD99S6-v-16">
          <mxGeometry y="30" width="160" height="40" as="geometry" />
        </mxCell>
        <mxCell id="nV4IlibakuIvGD99S6-v-18" value="&lt;font&gt;Location of Customers (Country)&lt;/font&gt;" style="rounded=0;whiteSpace=wrap;html=1;fillColor=none;strokeColor=none;" vertex="1" parent="1">
          <mxGeometry x="550" y="270" width="160" height="20" as="geometry" />
        </mxCell>
        <mxCell id="nV4IlibakuIvGD99S6-v-20" value="erp_cust_az12" style="swimlane;fontStyle=0;childLayout=stackLayout;horizontal=1;startSize=30;horizontalStack=0;resizeParent=1;resizeParentMax=0;resizeLast=0;collapsible=1;marginBottom=0;whiteSpace=wrap;html=1;rounded=1;sketch=1;curveFitting=1;jiggle=2;fillColor=#fff2cc;strokeColor=#d6b656;fontSize=20;" vertex="1" parent="1">
          <mxGeometry x="550" y="425" width="170" height="70" as="geometry" />
        </mxCell>
        <mxCell id="nV4IlibakuIvGD99S6-v-21" value="cid" style="text;strokeColor=none;fillColor=none;align=left;verticalAlign=middle;spacingLeft=4;spacingRight=4;overflow=hidden;points=[[0,0.5],[1,0.5]];portConstraint=eastwest;rotatable=0;whiteSpace=wrap;html=1;fontSize=20;" vertex="1" parent="nV4IlibakuIvGD99S6-v-20">
          <mxGeometry y="30" width="170" height="40" as="geometry" />
        </mxCell>
        <mxCell id="nV4IlibakuIvGD99S6-v-22" value="&lt;font&gt;Extra Customer Information (BirthDate)&lt;/font&gt;" style="rounded=0;whiteSpace=wrap;html=1;fillColor=none;strokeColor=none;" vertex="1" parent="1">
          <mxGeometry x="550" y="400" width="170" height="20" as="geometry" />
        </mxCell>
        <mxCell id="nV4IlibakuIvGD99S6-v-23" value="erp_px_cat_g1v2" style="swimlane;fontStyle=0;childLayout=stackLayout;horizontal=1;startSize=30;horizontalStack=0;resizeParent=1;resizeParentMax=0;resizeLast=0;collapsible=1;marginBottom=0;whiteSpace=wrap;html=1;rounded=1;sketch=1;curveFitting=1;jiggle=2;fillColor=#fff2cc;strokeColor=#d6b656;fontSize=20;" vertex="1" parent="1">
          <mxGeometry x="550" y="170" width="170" height="70" as="geometry" />
        </mxCell>
        <mxCell id="nV4IlibakuIvGD99S6-v-24" value="id" style="text;strokeColor=none;fillColor=none;align=left;verticalAlign=middle;spacingLeft=4;spacingRight=4;overflow=hidden;points=[[0,0.5],[1,0.5]];portConstraint=eastwest;rotatable=0;whiteSpace=wrap;html=1;fontSize=20;" vertex="1" parent="nV4IlibakuIvGD99S6-v-23">
          <mxGeometry y="30" width="170" height="40" as="geometry" />
        </mxCell>
        <mxCell id="nV4IlibakuIvGD99S6-v-25" value="&lt;font&gt;Extra Customer Information (BirthDate)&lt;/font&gt;" style="rounded=0;whiteSpace=wrap;html=1;fillColor=none;strokeColor=none;" vertex="1" parent="1">
          <mxGeometry x="550" y="140" width="180" height="20" as="geometry" />
        </mxCell>
        <mxCell id="nV4IlibakuIvGD99S6-v-28" style="edgeStyle=orthogonalEdgeStyle;rounded=0;orthogonalLoop=1;jettySize=auto;html=1;" edge="1" parent="1" source="nV4IlibakuIvGD99S6-v-21" target="nV4IlibakuIvGD99S6-v-19">
          <mxGeometry relative="1" as="geometry" />
        </mxCell>
        <mxCell id="nV4IlibakuIvGD99S6-v-31" value="" style="rounded=1;whiteSpace=wrap;html=1;fillColor=none;dashed=1;" vertex="1" parent="1">
          <mxGeometry x="20" y="105" width="470" height="460" as="geometry" />
        </mxCell>
        <mxCell id="nV4IlibakuIvGD99S6-v-29" style="edgeStyle=orthogonalEdgeStyle;rounded=0;orthogonalLoop=1;jettySize=auto;html=1;entryX=0.952;entryY=0.5;entryDx=0;entryDy=0;entryPerimeter=0;" edge="1" parent="1" source="nV4IlibakuIvGD99S6-v-17" target="nV4IlibakuIvGD99S6-v-19">
          <mxGeometry relative="1" as="geometry" />
        </mxCell>
        <mxCell id="nV4IlibakuIvGD99S6-v-30" style="edgeStyle=orthogonalEdgeStyle;rounded=0;orthogonalLoop=1;jettySize=auto;html=1;" edge="1" parent="1" source="nV4IlibakuIvGD99S6-v-24" target="nV4IlibakuIvGD99S6-v-8">
          <mxGeometry relative="1" as="geometry" />
        </mxCell>
        <mxCell id="nV4IlibakuIvGD99S6-v-33" value="" style="rounded=1;whiteSpace=wrap;html=1;dashed=1;fillColor=none;" vertex="1" parent="1">
          <mxGeometry x="530" y="110" width="230" height="450" as="geometry" />
        </mxCell>
        <mxCell id="nV4IlibakuIvGD99S6-v-34" value="&lt;font style=&quot;font-size: 24px;&quot;&gt;CRM&lt;/font&gt;" style="rounded=1;whiteSpace=wrap;html=1;fillColor=#dae8fc;strokeColor=#6c8ebf;" vertex="1" parent="1">
          <mxGeometry x="195" y="90" width="100" height="40" as="geometry" />
        </mxCell>
        <mxCell id="nV4IlibakuIvGD99S6-v-35" value="&lt;font style=&quot;font-size: 24px;&quot;&gt;ERP&lt;/font&gt;" style="rounded=1;whiteSpace=wrap;html=1;fillColor=#fff2cc;strokeColor=#d6b656;" vertex="1" parent="1">
          <mxGeometry x="610" y="90" width="90" height="40" as="geometry" />
        </mxCell>
        <mxCell id="nV4IlibakuIvGD99S6-v-36" value="&lt;b&gt;PRODUCT&lt;/b&gt;" style="rounded=1;whiteSpace=wrap;html=1;fillColor=#f8cecc;strokeColor=#b85450;" vertex="1" parent="1">
          <mxGeometry x="270" y="240" width="170" height="20" as="geometry" />
        </mxCell>
        <mxCell id="nV4IlibakuIvGD99S6-v-37" value="&lt;b&gt;PRODUCT&lt;/b&gt;" style="rounded=1;whiteSpace=wrap;html=1;fillColor=#f8cecc;strokeColor=#b85450;" vertex="1" parent="1">
          <mxGeometry x="555" y="240" width="160" height="20" as="geometry" />
        </mxCell>
        <mxCell id="nV4IlibakuIvGD99S6-v-38" value="&lt;b&gt;CUSTOMER&lt;/b&gt;" style="rounded=1;whiteSpace=wrap;html=1;fillColor=#d5e8d4;strokeColor=#82b366;" vertex="1" parent="1">
          <mxGeometry x="555" y="365" width="150" height="20" as="geometry" />
        </mxCell>
        <mxCell id="nV4IlibakuIvGD99S6-v-39" value="&lt;b&gt;CUSTOMER&lt;/b&gt;" style="rounded=1;whiteSpace=wrap;html=1;fillColor=#d5e8d4;strokeColor=#82b366;" vertex="1" parent="1">
          <mxGeometry x="265" y="510" width="170" height="20" as="geometry" />
        </mxCell>
        <mxCell id="nV4IlibakuIvGD99S6-v-40" value="&lt;b&gt;CUSTOMER&lt;/b&gt;" style="rounded=1;whiteSpace=wrap;html=1;fillColor=#d5e8d4;strokeColor=#82b366;" vertex="1" parent="1">
          <mxGeometry x="560" y="495" width="160" height="25" as="geometry" />
        </mxCell>
        <mxCell id="nV4IlibakuIvGD99S6-v-41" value="&lt;b&gt;SALES&lt;/b&gt;" style="rounded=1;whiteSpace=wrap;html=1;fillColor=#e1d5e7;strokeColor=#9673a6;" vertex="1" parent="1">
          <mxGeometry x="42.5" y="380" width="155" height="20" as="geometry" />
        </mxCell>
      </root>
    </mxGraphModel>
  </diagram>
</mxfile>
